HIERARCHY
ROOT Hips
{
	OFFSET -0.179506 -22.333345 2.821913
	CHANNELS 6 Xposition Yposition Zposition Zrotation Yrotation Xrotation 
	JOINT LeftUpLeg
	{
		OFFSET 6.951974 -9.140623 -0.681533
		CHANNELS 3 Zrotation Yrotation Xrotation
		JOINT LeftLeg
		{
			OFFSET 3.427654 -37.519855 -0.449580
			CHANNELS 3 Zrotation Yrotation Xrotation
			JOINT LeftFoot
			{
				OFFSET -1.359570 -39.796059 -4.369333
				CHANNELS 3 Zrotation Yrotation Xrotation
				JOINT LeftToe
				{
					OFFSET 2.635814 -5.579078 11.928840
					CHANNELS 3 Zrotation Yrotation Xrotation
					End Site
					{
						OFFSET 0.000000 0.000000 0.000000
					}
				}
			}
		}
	}
	JOINT RightUpLeg
	{
		OFFSET -6.767048 -9.052170 -0.431982
		CHANNELS 3 Zrotation Yrotation Xrotation
		JOINT RightLeg
		{
			OFFSET -3.829005 -38.256897 -0.885003
			CHANNELS 3 Zrotation Yrotation Xrotation
			JOINT RightFoot
			{
				OFFSET 1.577377 -39.841461 -4.231180
				CHANNELS 3 Zrotation Yrotation Xrotation
				JOINT RightToe
				{
					OFFSET -2.537174 -4.814398 12.334795
					CHANNELS 3 Zrotation Yrotation Xrotation
					End Site
					{
						OFFSET 0.000000 0.000000 0.000000
					}
				}
			}
		}
	}
	JOINT Spine
	{
		OFFSET -0.253288 10.896323 -2.669631
		CHANNELS 3 Zrotation Yrotation Xrotation
		JOINT Spine1
		{
			OFFSET 0.548704 13.518043 0.109247
			CHANNELS 3 Zrotation Yrotation Xrotation
			JOINT Spine2
			{
				OFFSET 0.145701 5.292222 2.542457
				CHANNELS 3 Zrotation Yrotation Xrotation
				JOINT Neck
				{
					OFFSET -0.277840 21.387037 -4.285703
					CHANNELS 3 Zrotation Yrotation Xrotation
					JOINT Head
					{
						OFFSET 0.515184 6.496960 5.134897
						CHANNELS 3 Zrotation Yrotation Xrotation
						End Site
						{
							OFFSET 0.000000 0.000000 0.000000
						}
					}
				}
				JOINT LeftShoulder
				{
					OFFSET 7.884473 12.174932 -3.408961
					CHANNELS 3 Zrotation Yrotation Xrotation
					JOINT LeftArm
					{
						OFFSET 9.097692 3.046888 -0.886815
						CHANNELS 3 Zrotation Yrotation Xrotation
						JOINT LeftForeArm
						{
							OFFSET 25.961220 -1.277207 -2.745643
							CHANNELS 3 Zrotation Yrotation Xrotation
							JOINT LeftHand
							{
								OFFSET 24.923361 0.898606 -0.117091
								CHANNELS 3 Zrotation Yrotation Xrotation
								End Site
								{
									OFFSET 0.000000 0.000000 0.000000
								}
							}
						}
					}
				}
				JOINT RightShoulder
				{
					OFFSET -8.175920 11.883285 -3.861528
					CHANNELS 3 Zrotation Yrotation Xrotation
					JOINT RightArm
					{
						OFFSET -9.601238 3.255117 -0.914307
						CHANNELS 3 Zrotation Yrotation Xrotation
						JOINT RightForeArm
						{
							OFFSET -25.374195 -1.332924 -2.140099
							CHANNELS 3 Zrotation Yrotation Xrotation
							JOINT RightHand
							{
								OFFSET -25.529810 0.777228 -0.555919
								CHANNELS 3 Zrotation Yrotation Xrotation
								End Site
								{
									OFFSET 0.000000 0.000000 0.000000
								}
							}
						}
					}
				}
			}
		}
	}
}
MOTION
Frames: 16
Frame Time: 0.033333
-7.686981 -7.961490 92.030930 -119.341746 2.125070 87.009619 13.702351 5.307526 0.490612 -5.128956 -2.561104 10.513988 0.181245 9.352586 -19.680101 nan nan nan -12.116019 -11.414767 -7.662426 2.290872 -12.523811 10.320078 3.789393 -7.711033 -6.235010 nan nan nan -9.872803 2.006605 -0.628830 7.661949 -5.798821 13.092859 1.449086 0.498158 -8.469131 1.395076 -18.862645 19.048687 6.372932 -19.245306 15.351460 -13.100651 -6.481556 4.245078 -66.476020 -47.499247 34.141338 151.102403 -64.983387 -123.679277 -3.234919 -18.840017 -8.673934 16.579025 -0.590905 -2.827760 42.555571 14.506880 -1.344952 -93.307515 51.402851 -69.359982 1.916973 6.189727 -6.104537 
-7.675506 -7.964087 92.027184 -119.335723 2.126290 87.040250 13.713382 5.283462 0.445622 -5.137513 -2.544607 10.507891 0.168735 9.346229 -19.696005 nan nan nan -12.113900 -11.428487 -7.703231 2.297105 -12.552984 10.347075 3.826032 -7.717154 -6.181015 nan nan nan -9.843018 2.010552 -0.695046 7.641332 -5.809429 13.105540 1.447104 0.436526 -8.406440 1.438659 -18.884808 18.899771 6.299058 -19.202513 15.529262 -13.119772 -6.442541 4.205968 -66.481237 -47.523839 34.136537 151.091507 -65.011492 -123.682014 -3.194267 -18.918965 -8.697693 16.662221 -0.638303 -2.881351 42.500427 14.625135 -1.259399 -93.229595 51.325602 -69.432443 1.964857 6.317967 -6.310706 
-7.671616 -7.962958 92.027145 -119.329986 2.115601 87.058327 13.702274 5.267257 0.464016 -5.126728 -2.456609 10.426906 0.134542 9.291652 -19.691828 nan nan nan -12.127776 -11.435461 -7.748458 2.269465 -12.611260 10.406273 3.894507 -7.684429 -6.074240 nan nan nan -9.809163 2.064087 -0.779495 7.602139 -5.785301 13.206523 1.449722 0.322759 -8.402591 1.488702 -18.909524 18.710176 6.201962 -19.183843 15.767902 -13.236408 -6.431365 4.161418 -66.444685 -47.602895 34.176822 150.812131 -65.106243 -123.626308 -3.133339 -19.252317 -8.631676 16.852608 -0.691610 -2.947213 42.340381 14.762311 -1.127245 -93.154612 51.111344 -69.722626 2.092586 6.723776 -6.837858 
-7.682077 -7.966106 92.025276 -119.321692 2.106019 87.063261 13.677505 5.239444 0.486872 -5.110375 -2.433478 10.369464 0.129374 9.276303 -19.661389 nan nan nan -12.115957 -11.411457 -7.772683 2.198135 -12.584350 10.443233 3.891538 -7.724570 -6.112251 nan nan nan -9.776782 2.104388 -0.791370 7.561445 -5.740411 13.224474 1.448629 0.282306 -8.398407 1.508540 -18.943883 18.662778 6.223124 -19.214976 15.777878 -13.197684 -6.477981 4.163830 -66.470231 -47.626748 34.188006 150.738845 -65.060633 -123.582293 -3.316221 -19.254268 -8.507935 16.821222 -0.733738 -2.926671 42.363856 14.723354 -1.109709 -93.207858 51.093058 -69.693554 2.264487 6.755940 -6.776415 
-7.687916 -7.937799 92.044289 -119.288710 2.043007 87.017386 13.697899 5.255660 0.490872 -5.162803 -2.753381 10.450044 1.209674 9.299443 -19.473967 nan nan nan -12.124000 -11.513571 -7.743765 2.121400 -12.349720 10.519559 3.821364 -7.732308 -6.302086 nan nan nan -10.120062 2.178310 -0.655640 7.688442 -5.770248 13.332263 1.613750 0.427735 -8.714673 1.396869 -18.922406 18.914506 6.525871 -19.340496 15.620492 -12.907082 -6.486278 4.460701 -67.021829 -47.663620 34.294103 150.713726 -65.007714 -123.391425 -3.818741 -19.313862 -8.541661 16.664624 -0.878639 -2.732510 42.509520 14.707473 -1.362481 -93.405673 51.134342 -69.687481 2.999099 6.746163 -6.314990 
-7.685408 -7.937578 91.993057 -119.300187 2.100626 86.899994 13.856378 5.388228 0.646481 -5.297519 -2.831062 10.446029 1.068636 9.268779 -19.258780 nan nan nan -12.085896 -11.568658 -7.666928 2.146677 -12.148897 10.697732 3.632128 -7.635989 -6.495890 nan nan nan -10.262173 2.187429 -0.662214 7.929093 -5.920941 13.627583 1.759828 0.384609 -8.675119 1.420355 -18.339364 18.701112 6.663529 -19.640947 15.059818 -12.580164 -6.068976 4.485323 -67.763024 -47.826543 34.383509 150.919545 -65.139743 -122.988660 -3.750310 -19.698874 -8.372410 16.203550 -0.800942 -2.361758 42.786496 15.290687 -1.490428 -93.361527 50.962748 -69.233781 3.058268 6.928722 -6.564316 
-7.696569 -7.941114 91.973366 -119.304311 2.119718 86.783976 13.909256 5.434980 0.838306 -5.327750 -2.806837 10.347769 0.964516 9.239567 -19.196965 nan nan nan -12.091215 -11.534894 -7.492584 2.195730 -12.022169 10.637945 3.655165 -7.627167 -6.452982 nan nan nan -10.231750 2.150324 -0.482064 7.957206 -5.928965 13.450581 1.745903 0.317240 -8.420262 1.520192 -18.125271 18.469828 6.732453 -19.714186 14.890490 -12.404884 -5.782089 4.421197 -68.070870 -47.950009 34.422448 151.089675 -65.487801 -122.646070 -3.171399 -20.188896 -8.375714 16.114829 -0.884917 -2.162420 42.930041 15.764856 -1.476291 -93.245220 50.917533 -68.851435 2.779547 7.094029 -6.817172 
-7.694422 -7.940064 91.969322 -119.287640 2.064102 86.754301 13.843360 5.409420 0.932474 -5.333616 -2.808867 10.237358 0.930416 9.279519 -19.133116 nan nan nan -12.170941 -11.511144 -7.428871 2.237732 -12.020009 10.580617 3.675645 -7.637759 -6.394247 nan nan nan -10.203774 2.189310 -0.536964 7.878776 -5.924764 13.559773 1.678054 0.213812 -8.420427 1.510985 -18.142767 18.407236 6.806944 -19.668298 14.961984 -12.362276 -5.741554 4.470486 -68.071188 -48.068493 34.437276 150.981582 -65.552498 -122.623692 -3.047530 -20.234328 -8.560331 16.129728 -0.942065 -2.118130 43.106624 15.968392 -1.382102 -93.232296 50.809654 -68.949553 2.935650 7.230586 -7.242499 
-7.681656 -7.935901 91.977966 -119.258420 2.022242 86.813277 13.781335 5.387841 0.869572 -5.315880 -2.807251 10.212095 0.962667 9.289333 -19.093845 nan nan nan -12.220655 -11.497329 -7.470738 2.265100 -12.086004 10.539534 3.728027 -7.615828 -6.319722 nan nan nan -10.159239 2.218448 -0.632477 7.794376 -5.930641 13.652861 1.607384 0.141255 -8.571516 1.489693 -18.188266 18.423913 6.728146 -19.601413 15.204694 -12.356868 -5.772980 4.588987 -68.154889 -48.074630 34.537362 150.767943 -65.341971 -122.823594 -3.596698 -19.979969 -8.817007 16.219871 -0.954915 -2.082539 43.176629 16.000789 -1.292941 -93.258847 50.711983 -69.097368 3.320960 7.203118 -7.251964 
-7.684421 -7.926394 91.982063 -119.206487 2.059700 86.837606 13.832678 5.404851 0.863301 -5.339414 -2.909621 10.148261 0.984615 9.290992 -19.092914 nan nan nan -12.172970 -11.520533 -7.467205 2.235817 -12.108924 10.493786 3.702324 -7.616905 -6.310085 nan nan nan -10.110016 2.166233 -0.562057 7.776363 -5.935938 13.468970 1.600311 0.173707 -8.565126 1.463508 -18.257613 18.438042 6.650220 -19.538623 15.359787 -12.395339 -5.816742 4.704602 -68.211936 -48.078045 34.531615 150.845147 -65.276236 -123.105637 -3.847284 -19.795497 -8.825889 16.235294 -1.018373 -1.975291 43.106460 16.052474 -1.463195 -93.205209 50.935651 -68.888261 3.352476 6.928463 -6.510030 
-7.693812 -7.923116 91.977928 -119.194677 2.071216 86.844109 13.853302 5.446924 0.915674 -5.341622 -2.961709 10.041474 0.962647 9.276914 -19.066506 nan nan nan -12.152219 -11.524075 -7.484808 2.206773 -12.087789 10.501668 3.695262 -7.629131 -6.317807 nan nan nan -10.089485 2.144667 -0.554462 7.744281 -5.920300 13.385877 1.584987 0.220270 -8.518971 1.512808 -18.268783 18.435902 6.691731 -19.572261 15.370420 -12.374806 -5.918562 4.808731 -68.170949 -48.152016 34.445587 150.888362 -65.320945 -123.142948 -3.824649 -19.765236 -8.774176 16.225541 -1.005530 -1.826699 43.111576 16.041060 -1.676682 -93.204315 51.045512 -68.631478 2.983324 6.677164 -5.819784 
-7.701744 -7.925313 91.971527 -119.187706 2.069347 86.844595 13.870164 5.515293 0.970744 -5.351586 -2.992039 9.942911 0.974302 9.224398 -19.009138 nan nan nan -12.151854 -11.511634 -7.478379 2.234741 -12.069152 10.466629 3.744469 -7.635216 -6.299399 nan nan nan -10.129738 2.100709 -0.536260 7.747537 -5.924246 13.283990 1.595833 0.253772 -8.403540 1.611282 -18.218793 18.367107 6.743788 -19.675007 15.329035 -12.341806 -5.916940 4.811066 -68.230350 -48.192486 34.462302 150.946582 -65.373298 -123.213264 -3.806918 -19.791903 -8.773501 16.221312 -0.935324 -1.781736 43.189855 16.038824 -1.707492 -93.271223 50.993130 -68.639448 2.741710 6.568380 -5.720610 
-7.711993 -7.932124 91.969048 -119.177305 2.061688 86.801912 13.859785 5.515091 1.076517 -5.335861 -3.036309 9.824724 1.010469 9.205196 -18.982679 nan nan nan -12.155884 -11.471626 -7.420232 2.240513 -12.064854 10.435123 3.776628 -7.661172 -6.342604 nan nan nan -10.164803 2.024058 -0.437359 7.768707 -5.936911 13.202806 1.625125 0.256033 -8.360830 1.660356 -18.142211 18.243940 6.653472 -19.707637 15.390831 -12.355905 -5.779091 4.674990 -68.392171 -48.121537 34.595673 150.985459 -65.433000 -123.257248 -3.836140 -19.864223 -8.794018 16.178532 -0.888577 -1.821772 43.320907 16.084816 -1.539867 -93.366492 50.865793 -68.880834 2.916488 6.738819 -6.196289 
-7.714877 -7.934440 91.973801 -119.172598 2.044012 86.790350 13.833732 5.498449 1.143773 -5.334674 -3.083828 9.725095 1.024149 9.237122 -18.912894 nan nan nan -12.177899 -11.442008 -7.419981 2.246767 -12.123862 10.443470 3.779652 -7.656069 -6.398139 nan nan nan -10.163494 2.047941 -0.458970 7.755026 -5.937626 13.300481 1.644008 0.188088 -8.443368 1.650626 -18.075752 18.234750 6.622488 -19.718255 15.396555 -12.349459 -5.817552 4.621738 -68.349198 -48.026181 34.546161 150.922794 -65.436949 -123.134192 -3.783925 -19.992806 -8.862322 16.141875 -0.797261 -1.878600 43.398103 15.976544 -1.433283 -93.432151 50.716813 -69.115936 3.236285 7.132173 -6.813560 
-7.722061 -7.931578 91.980240 -119.166858 2.021561 86.796762 13.775844 5.459833 1.209998 -5.293690 -3.148289 9.600808 1.060434 9.287723 -18.916859 nan nan nan -12.228768 -11.493382 -7.432738 2.294528 -12.106382 10.466609 3.781251 -7.623511 -6.413465 nan nan nan -10.182992 2.107802 -0.494132 7.731334 -5.944495 13.335261 1.668033 0.157804 -8.482360 1.648106 -18.064417 18.229301 6.653179 -19.695904 15.446762 -12.281842 -6.037925 4.668047 -68.204713 -47.923019 34.390404 150.837516 -65.363044 -122.956412 -3.771847 -20.009576 -8.883038 16.182174 -0.728245 -1.932554 43.344033 15.805502 -1.468959 -93.491700 50.661652 -69.289497 3.621603 7.374932 -7.102998 
-7.732477 -7.940732 91.972130 -119.163484 2.022596 86.832376 13.734217 5.429036 1.243035 -5.236863 -3.211871 9.465480 1.113589 9.341214 -18.975672 nan nan nan -12.226139 -11.539100 -7.493317 2.250518 -12.068176 10.520863 3.702049 -7.607888 -6.388059 nan nan nan -10.159880 2.119040 -0.505590 7.742405 -5.914188 13.291959 1.672604 0.156132 -8.467307 1.623139 -18.128636 18.159401 6.619917 -19.653456 15.465452 -12.291693 -6.094959 4.699989 -68.170053 -47.916842 34.363649 150.815913 -65.432100 -122.825777 -3.541452 -20.113486 -8.692107 16.136761 -0.836716 -1.969012 43.313433 15.825171 -1.526014 -93.414260 50.823717 -69.031613 3.436344 7.343483 -6.763427 
